<svg id="Layer_1" enable-background="new 0 0 478.44 478.44" height="512" viewBox="0 0 478.44 478.44" width="512" xmlns="http://www.w3.org/2000/svg"><path d="m239.152 119.157c-87.196 0-145.639 91.053-108.807 170.523 27.699 59.766 99.585 86.108 159.335 58.414 59.767-27.697 86.108-99.585 58.415-159.334-20.315-43.833-63.682-69.603-108.943-69.603zm-44.275 139.418c3.125 3.124 3.125 8.189 0 11.314-3.125 3.124-8.189 3.123-11.313 0l-25.012-25.012c-3.122-3.123-3.124-8.189 0-11.314l25.012-25.012c3.125-3.123 8.19-3.122 11.313 0 3.125 3.125 3.125 8.19 0 11.314l-19.355 19.354zm71.238-49.298-40 68c-2.239 3.807-7.142 5.079-10.952 2.839-3.808-2.24-5.08-7.144-2.839-10.952l40-68c2.24-3.808 7.145-5.078 10.952-2.839 3.808 2.24 5.08 7.143 2.839 10.952zm52.774 35.6-25.012 25.013c-3.125 3.124-8.189 3.123-11.313 0-3.125-3.124-3.125-8.189 0-11.314l19.355-19.355-19.355-19.354c-3.125-3.124-3.125-8.189 0-11.314 3.124-3.123 8.189-3.123 11.313 0l25.012 25.012c3.122 3.121 3.124 8.187 0 11.312z"/><path d="m461.15 319.51-37.6-29.39c9.141-33.117 9.158-68.623 0-101.8l37.6-29.39c3.14-2.45 3.99-6.85 2-10.3l-33.51-58.04c-2-3.46-6.23-4.91-9.92-3.42l-44.31 17.88c-24.38-24.77-54.64-42.26-88.1-50.92l-6.66-47.25c-.55-3.95-3.93-6.88-7.92-6.88h-67.02c-3.99 0-7.37 2.93-7.92 6.88l-6.66 47.25c-33.46 8.66-63.72 26.15-88.1 50.92l-44.3-17.88c-3.7-1.49-7.93-.03-9.93 3.42l-33.51 58.04c-1.99 3.45-1.14 7.85 2 10.3l37.6 29.39c-9.141 33.117-9.158 68.623 0 101.8l-37.6 29.39c-3.14 2.45-3.99 6.85-2 10.3l33.51 58.04c2 3.45 6.23 4.91 9.93 3.42l44.3-17.88c24.38 24.77 54.64 42.26 88.1 50.92l6.66 47.25c.55 3.95 3.93 6.88 7.92 6.88h67.02c3.99 0 7.37-2.93 7.92-6.88l6.66-47.25c33.46-8.66 63.72-26.15 88.1-50.92l44.31 17.88c3.69 1.49 7.92.03 9.92-3.42l33.51-58.04c1.99-3.45 1.14-7.85-2-10.3zm-164.742 43.102c-32.765 15.186-69.669 16.616-103.915 4.062-70.862-25.978-106.718-103.284-80.727-174.18 26.254-71.613 104.41-106.57 174.266-80.963 34.107 12.505 61.303 37.542 76.579 70.501 31.42 67.793 1.572 149.167-66.203 180.58z"/></svg>